<?xml version="1.0" encoding="UTF-8" standalone="no"?>
<!DOCTYPE svg PUBLIC "-//W3C//DTD SVG 1.1//EN"
 "http://www.w3.org/Graphics/SVG/1.1/DTD/svg11.dtd">
<!-- Generated by graphviz version 3.0.0 (20220226.1711)
 -->
<!-- Title: dependencies Pages: 1 -->
<svg width="166pt" height="174pt"
 viewBox="0.00 0.00 166.00 173.80" xmlns="http://www.w3.org/2000/svg" xmlns:xlink="http://www.w3.org/1999/xlink">
<g id="graph0" class="graph" transform="scale(1 1) rotate(0) translate(4 169.8)">
<title>dependencies</title>
<polygon fill="white" stroke="transparent" points="-4,4 -4,-169.8 162,-169.8 162,4 -4,4"/>
<text text-anchor="middle" x="79" y="-8.2" font-family="sans-serif" font-size="14.00">dependencies</text>
<g id="clust1" class="cluster">
<title>cluster_AppSharedModule</title>
<polygon fill="none" stroke="black" stroke-dasharray="1,5" points="8,-32.8 8,-157.8 150,-157.8 150,-32.8 8,-32.8"/>
</g>
<g id="clust4" class="cluster">
<title>cluster_AppSharedModule_exports</title>
<polygon fill="none" stroke="black" points="16,-97.8 16,-149.8 142,-149.8 142,-97.8 16,-97.8"/>
</g>
<!-- MaterialModule  -->
<g id="node1" class="node">
<title>MaterialModule </title>
<polygon fill="#fb8072" stroke="black" points="134.47,-141.8 23.53,-141.8 23.53,-105.8 134.47,-105.8 134.47,-141.8"/>
<text text-anchor="middle" x="79" y="-119.6" font-family="Times,serif" font-size="14.00">MaterialModule </text>
</g>
<!-- AppSharedModule -->
<g id="node2" class="node">
<title>AppSharedModule</title>
<polygon fill="#8dd3c7" stroke="black" points="140.04,-76.8 137.04,-80.8 116.04,-80.8 113.04,-76.8 17.96,-76.8 17.96,-40.8 140.04,-40.8 140.04,-76.8"/>
<text text-anchor="middle" x="79" y="-54.6" font-family="Times,serif" font-size="14.00">AppSharedModule</text>
</g>
<!-- AppSharedModule&#45;&gt;MaterialModule  -->
<g id="edge1" class="edge">
<title>AppSharedModule&#45;&gt;MaterialModule </title>
<path fill="none" stroke="black" stroke-dasharray="5,2" d="M79,-76.91C79,-76.91 79,-95.79 79,-95.79"/>
<polygon fill="black" stroke="black" points="75.5,-95.79 79,-105.79 82.5,-95.79 75.5,-95.79"/>
</g>
</g>
</svg>
