<?xml version="1.0" encoding="UTF-8" standalone="no"?>
<!DOCTYPE svg PUBLIC "-//W3C//DTD SVG 1.1//EN"
 "http://www.w3.org/Graphics/SVG/1.1/DTD/svg11.dtd">
<!-- Generated by graphviz version 3.0.0 (20220226.1711)
 -->
<!-- Title: dependencies Pages: 1 -->
<svg width="548pt" height="174pt"
 viewBox="0.00 0.00 548.00 173.80" xmlns="http://www.w3.org/2000/svg" xmlns:xlink="http://www.w3.org/1999/xlink">
<g id="graph0" class="graph" transform="scale(1 1) rotate(0) translate(4 169.8)">
<title>dependencies</title>
<polygon fill="white" stroke="transparent" points="-4,4 -4,-169.8 544,-169.8 544,4 -4,4"/>
<text text-anchor="middle" x="270" y="-8.2" font-family="sans-serif" font-size="14.00">dependencies</text>
<g id="clust1" class="cluster">
<title>cluster_BeforeLoginModule</title>
<polygon fill="none" stroke="black" stroke-dasharray="1,5" points="8,-32.8 8,-157.8 532,-157.8 532,-32.8 8,-32.8"/>
</g>
<g id="clust2" class="cluster">
<title>cluster_BeforeLoginModule_declarations</title>
<polygon fill="none" stroke="black" points="356,-40.8 356,-92.8 524,-92.8 524,-40.8 356,-40.8"/>
</g>
<g id="clust4" class="cluster">
<title>cluster_BeforeLoginModule_imports</title>
<polygon fill="none" stroke="black" points="16,-40.8 16,-92.8 348,-92.8 348,-40.8 16,-40.8"/>
</g>
<!-- BeforeLoginComponent -->
<g id="node1" class="node">
<title>BeforeLoginComponent</title>
<polygon fill="#ffffb3" stroke="black" points="516.36,-84.8 363.64,-84.8 363.64,-48.8 516.36,-48.8 516.36,-84.8"/>
<text text-anchor="middle" x="440" y="-62.6" font-family="Times,serif" font-size="14.00">BeforeLoginComponent</text>
</g>
<!-- BeforeLoginModule -->
<g id="node2" class="node">
<title>BeforeLoginModule</title>
<polygon fill="#8dd3c7" stroke="black" points="344.58,-149.8 341.58,-153.8 320.58,-153.8 317.58,-149.8 213.42,-149.8 213.42,-113.8 344.58,-113.8 344.58,-149.8"/>
<text text-anchor="middle" x="279" y="-127.6" font-family="Times,serif" font-size="14.00">BeforeLoginModule</text>
</g>
<!-- BeforeLoginComponent&#45;&gt;BeforeLoginModule -->
<g id="edge1" class="edge">
<title>BeforeLoginComponent&#45;&gt;BeforeLoginModule</title>
<path fill="none" stroke="black" d="M440,-84.91C440,-104.14 440,-131.8 440,-131.8 440,-131.8 354.95,-131.8 354.95,-131.8"/>
<polygon fill="black" stroke="black" points="354.95,-128.3 344.95,-131.8 354.95,-135.3 354.95,-128.3"/>
</g>
<!-- AppSharedModule -->
<g id="node3" class="node">
<title>AppSharedModule</title>
<polygon fill="#8dd3c7" stroke="black" points="340.04,-84.8 337.04,-88.8 316.04,-88.8 313.04,-84.8 217.96,-84.8 217.96,-48.8 340.04,-48.8 340.04,-84.8"/>
<text text-anchor="middle" x="279" y="-62.6" font-family="Times,serif" font-size="14.00">AppSharedModule</text>
</g>
<!-- AppSharedModule&#45;&gt;BeforeLoginModule -->
<g id="edge2" class="edge">
<title>AppSharedModule&#45;&gt;BeforeLoginModule</title>
<path fill="none" stroke="black" d="M279,-84.91C279,-84.91 279,-103.79 279,-103.79"/>
<polygon fill="black" stroke="black" points="275.5,-103.79 279,-113.79 282.5,-103.79 275.5,-103.79"/>
</g>
<!-- BeforeLoginRoutingModule -->
<g id="node4" class="node">
<title>BeforeLoginRoutingModule</title>
<polygon fill="#8dd3c7" stroke="black" points="200.2,-84.8 197.2,-88.8 176.2,-88.8 173.2,-84.8 23.8,-84.8 23.8,-48.8 200.2,-48.8 200.2,-84.8"/>
<text text-anchor="middle" x="112" y="-62.6" font-family="Times,serif" font-size="14.00">BeforeLoginRoutingModule</text>
</g>
<!-- BeforeLoginRoutingModule&#45;&gt;BeforeLoginModule -->
<g id="edge3" class="edge">
<title>BeforeLoginRoutingModule&#45;&gt;BeforeLoginModule</title>
<path fill="none" stroke="black" d="M112,-84.91C112,-104.14 112,-131.8 112,-131.8 112,-131.8 203,-131.8 203,-131.8"/>
<polygon fill="black" stroke="black" points="203,-135.3 213,-131.8 203,-128.3 203,-135.3"/>
</g>
</g>
</svg>
