<?xml version="1.0" encoding="UTF-8" standalone="no"?>
<!DOCTYPE svg PUBLIC "-//W3C//DTD SVG 1.1//EN"
 "http://www.w3.org/Graphics/SVG/1.1/DTD/svg11.dtd">
<!-- Generated by graphviz version 3.0.0 (20220226.1711)
 -->
<!-- Title: dependencies Pages: 1 -->
<svg width="4081pt" height="174pt"
 viewBox="0.00 0.00 4081.00 173.80" xmlns="http://www.w3.org/2000/svg" xmlns:xlink="http://www.w3.org/1999/xlink">
<g id="graph0" class="graph" transform="scale(1 1) rotate(0) translate(4 169.8)">
<title>dependencies</title>
<polygon fill="white" stroke="transparent" points="-4,4 -4,-169.8 4077,-169.8 4077,4 -4,4"/>
<text text-anchor="middle" x="2036.5" y="-8.2" font-family="sans-serif" font-size="14.00">dependencies</text>
<g id="clust1" class="cluster">
<title>cluster_ThreejsSobaModule</title>
<polygon fill="none" stroke="black" stroke-dasharray="1,5" points="8,-32.8 8,-157.8 4065,-157.8 4065,-32.8 8,-32.8"/>
</g>
<g id="clust2" class="cluster">
<title>cluster_ThreejsSobaModule_declarations</title>
<polygon fill="none" stroke="black" points="530,-40.8 530,-92.8 4057,-92.8 4057,-40.8 530,-40.8"/>
</g>
<g id="clust25" class="cluster">
<title>cluster_ThreejsSobaModule_imports</title>
<polygon fill="none" stroke="black" points="16,-40.8 16,-92.8 522,-92.8 522,-40.8 16,-40.8"/>
</g>
<!-- AbsBillboardComponent -->
<g id="node1" class="node">
<title>AbsBillboardComponent</title>
<polygon fill="#ffffb3" stroke="black" points="4049.27,-84.8 3892.73,-84.8 3892.73,-48.8 4049.27,-48.8 4049.27,-84.8"/>
<text text-anchor="middle" x="3971" y="-62.6" font-family="Times,serif" font-size="14.00">AbsBillboardComponent</text>
</g>
<!-- ThreejsSobaModule -->
<g id="node23" class="node">
<title>ThreejsSobaModule</title>
<polygon fill="#8dd3c7" stroke="black" points="2136.53,-149.8 2133.53,-153.8 2112.53,-153.8 2109.53,-149.8 2007.47,-149.8 2007.47,-113.8 2136.53,-113.8 2136.53,-149.8"/>
<text text-anchor="middle" x="2072" y="-127.6" font-family="Times,serif" font-size="14.00">ThreejsSobaModule</text>
</g>
<!-- AbsBillboardComponent&#45;&gt;ThreejsSobaModule -->
<g id="edge1" class="edge">
<title>AbsBillboardComponent&#45;&gt;ThreejsSobaModule</title>
<path fill="none" stroke="black" d="M3971,-85.18C3971,-109.08 3971,-147.8 3971,-147.8 3971,-147.8 2146.54,-147.8 2146.54,-147.8"/>
<polygon fill="black" stroke="black" points="2146.54,-144.3 2136.54,-147.8 2146.54,-151.3 2146.54,-144.3"/>
</g>
<!-- AbsGizmoComponent -->
<g id="node2" class="node">
<title>AbsGizmoComponent</title>
<polygon fill="#ffffb3" stroke="black" points="3874.99,-84.8 3733.01,-84.8 3733.01,-48.8 3874.99,-48.8 3874.99,-84.8"/>
<text text-anchor="middle" x="3804" y="-62.6" font-family="Times,serif" font-size="14.00">AbsGizmoComponent</text>
</g>
<!-- AbsGizmoComponent&#45;&gt;ThreejsSobaModule -->
<g id="edge2" class="edge">
<title>AbsGizmoComponent&#45;&gt;ThreejsSobaModule</title>
<path fill="none" stroke="black" d="M3804,-84.89C3804,-107.93 3804,-144.8 3804,-144.8 3804,-144.8 2146.74,-144.8 2146.74,-144.8"/>
<polygon fill="black" stroke="black" points="2146.74,-141.3 2136.74,-144.8 2146.74,-148.3 2146.74,-141.3"/>
</g>
<!-- AbsGradientComponent -->
<g id="node3" class="node">
<title>AbsGradientComponent</title>
<polygon fill="#ffffb3" stroke="black" points="3715.37,-84.8 3562.63,-84.8 3562.63,-48.8 3715.37,-48.8 3715.37,-84.8"/>
<text text-anchor="middle" x="3639" y="-62.6" font-family="Times,serif" font-size="14.00">AbsGradientComponent</text>
</g>
<!-- AbsGradientComponent&#45;&gt;ThreejsSobaModule -->
<g id="edge3" class="edge">
<title>AbsGradientComponent&#45;&gt;ThreejsSobaModule</title>
<path fill="none" stroke="black" d="M3639,-84.96C3639,-107.15 3639,-141.8 3639,-141.8 3639,-141.8 2146.84,-141.8 2146.84,-141.8"/>
<polygon fill="black" stroke="black" points="2146.84,-138.3 2136.84,-141.8 2146.84,-145.3 2146.84,-138.3"/>
</g>
<!-- AbsLineComponent -->
<g id="node4" class="node">
<title>AbsLineComponent</title>
<polygon fill="#ffffb3" stroke="black" points="3544.55,-84.8 3415.45,-84.8 3415.45,-48.8 3544.55,-48.8 3544.55,-84.8"/>
<text text-anchor="middle" x="3480" y="-62.6" font-family="Times,serif" font-size="14.00">AbsLineComponent</text>
</g>
<!-- AbsLineComponent&#45;&gt;ThreejsSobaModule -->
<g id="edge4" class="edge">
<title>AbsLineComponent&#45;&gt;ThreejsSobaModule</title>
<path fill="none" stroke="black" d="M3480,-84.97C3480,-106.3 3480,-138.8 3480,-138.8 3480,-138.8 2146.62,-138.8 2146.62,-138.8"/>
<polygon fill="black" stroke="black" points="2146.62,-135.3 2136.62,-138.8 2146.62,-142.3 2146.62,-135.3"/>
</g>
<!-- AbsTextComponent -->
<g id="node5" class="node">
<title>AbsTextComponent</title>
<polygon fill="#ffffb3" stroke="black" points="3396.55,-84.8 3267.45,-84.8 3267.45,-48.8 3396.55,-48.8 3396.55,-84.8"/>
<text text-anchor="middle" x="3332" y="-62.6" font-family="Times,serif" font-size="14.00">AbsTextComponent</text>
</g>
<!-- AbsTextComponent&#45;&gt;ThreejsSobaModule -->
<g id="edge5" class="edge">
<title>AbsTextComponent&#45;&gt;ThreejsSobaModule</title>
<path fill="none" stroke="black" d="M3332,-84.83C3332,-105.57 3332,-136.8 3332,-136.8 3332,-136.8 2146.65,-136.8 2146.65,-136.8"/>
<polygon fill="black" stroke="black" points="2146.65,-133.3 2136.65,-136.8 2146.65,-140.3 2146.65,-133.3"/>
</g>
<!-- CamOthroComponent -->
<g id="node6" class="node">
<title>CamOthroComponent</title>
<polygon fill="#ffffb3" stroke="black" points="3249.44,-84.8 3108.56,-84.8 3108.56,-48.8 3249.44,-48.8 3249.44,-84.8"/>
<text text-anchor="middle" x="3179" y="-62.6" font-family="Times,serif" font-size="14.00">CamOthroComponent</text>
</g>
<!-- CamOthroComponent&#45;&gt;ThreejsSobaModule -->
<g id="edge6" class="edge">
<title>CamOthroComponent&#45;&gt;ThreejsSobaModule</title>
<path fill="none" stroke="black" d="M3179,-85.11C3179,-104.95 3179,-133.8 3179,-133.8 3179,-133.8 2146.71,-133.8 2146.71,-133.8"/>
<polygon fill="black" stroke="black" points="2146.71,-130.3 2136.71,-133.8 2146.71,-137.3 2146.71,-130.3"/>
</g>
<!-- ControlLockComponent -->
<g id="node7" class="node">
<title>ControlLockComponent</title>
<polygon fill="#ffffb3" stroke="black" points="3090.38,-84.8 2937.62,-84.8 2937.62,-48.8 3090.38,-48.8 3090.38,-84.8"/>
<text text-anchor="middle" x="3014" y="-62.6" font-family="Times,serif" font-size="14.00">ControlLockComponent</text>
</g>
<!-- ControlLockComponent&#45;&gt;ThreejsSobaModule -->
<g id="edge7" class="edge">
<title>ControlLockComponent&#45;&gt;ThreejsSobaModule</title>
<path fill="none" stroke="black" d="M3014,-84.97C3014,-103.89 3014,-130.8 3014,-130.8 3014,-130.8 2146.75,-130.8 2146.75,-130.8"/>
<polygon fill="black" stroke="black" points="2146.75,-127.3 2136.75,-130.8 2146.75,-134.3 2146.75,-127.3"/>
</g>
<!-- ControlTransformComponent -->
<g id="node8" class="node">
<title>ControlTransformComponent</title>
<polygon fill="#ffffb3" stroke="black" points="2919.7,-84.8 2736.3,-84.8 2736.3,-48.8 2919.7,-48.8 2919.7,-84.8"/>
<text text-anchor="middle" x="2828" y="-62.6" font-family="Times,serif" font-size="14.00">ControlTransformComponent</text>
</g>
<!-- ControlTransformComponent&#45;&gt;ThreejsSobaModule -->
<g id="edge8" class="edge">
<title>ControlTransformComponent&#45;&gt;ThreejsSobaModule</title>
<path fill="none" stroke="black" d="M2828,-85.1C2828,-103.07 2828,-127.8 2828,-127.8 2828,-127.8 2146.78,-127.8 2146.78,-127.8"/>
<polygon fill="black" stroke="black" points="2146.78,-124.3 2136.78,-127.8 2146.78,-131.3 2146.78,-124.3"/>
</g>
<!-- DefaultCameraShakeScene -->
<g id="node9" class="node">
<title>DefaultCameraShakeScene</title>
<polygon fill="#ffffb3" stroke="black" points="2718.65,-84.8 2549.35,-84.8 2549.35,-48.8 2718.65,-48.8 2718.65,-84.8"/>
<text text-anchor="middle" x="2634" y="-62.6" font-family="Times,serif" font-size="14.00">DefaultCameraShakeScene</text>
</g>
<!-- DefaultCameraShakeScene&#45;&gt;ThreejsSobaModule -->
<g id="edge9" class="edge">
<title>DefaultCameraShakeScene&#45;&gt;ThreejsSobaModule</title>
<path fill="none" stroke="black" d="M2634,-84.82C2634,-102.17 2634,-125.8 2634,-125.8 2634,-125.8 2146.74,-125.8 2146.74,-125.8"/>
<polygon fill="black" stroke="black" points="2146.74,-122.3 2136.74,-125.8 2146.74,-129.3 2146.74,-122.3"/>
</g>
<!-- DefaultCenter -->
<g id="node10" class="node">
<title>DefaultCenter</title>
<polygon fill="#ffffb3" stroke="black" points="2531.8,-84.8 2436.2,-84.8 2436.2,-48.8 2531.8,-48.8 2531.8,-84.8"/>
<text text-anchor="middle" x="2484" y="-62.6" font-family="Times,serif" font-size="14.00">DefaultCenter</text>
</g>
<!-- DefaultCenter&#45;&gt;ThreejsSobaModule -->
<g id="edge10" class="edge">
<title>DefaultCenter&#45;&gt;ThreejsSobaModule</title>
<path fill="none" stroke="black" d="M2484,-84.83C2484,-101.2 2484,-122.8 2484,-122.8 2484,-122.8 2146.83,-122.8 2146.83,-122.8"/>
<polygon fill="black" stroke="black" points="2146.83,-119.3 2136.83,-122.8 2146.83,-126.3 2146.83,-119.3"/>
</g>
<!-- DefaultGizmo -->
<g id="node11" class="node">
<title>DefaultGizmo</title>
<polygon fill="#ffffb3" stroke="black" points="2418.08,-84.8 2321.92,-84.8 2321.92,-48.8 2418.08,-48.8 2418.08,-84.8"/>
<text text-anchor="middle" x="2370" y="-62.6" font-family="Times,serif" font-size="14.00">DefaultGizmo</text>
</g>
<!-- DefaultGizmo&#45;&gt;ThreejsSobaModule -->
<g id="edge11" class="edge">
<title>DefaultGizmo&#45;&gt;ThreejsSobaModule</title>
<path fill="none" stroke="black" d="M2370,-85.04C2370,-100.37 2370,-119.8 2370,-119.8 2370,-119.8 2146.66,-119.8 2146.66,-119.8"/>
<polygon fill="black" stroke="black" points="2146.66,-116.3 2136.66,-119.8 2146.66,-123.3 2146.66,-116.3"/>
</g>
<!-- MiscHtmlComponent -->
<g id="node12" class="node">
<title>MiscHtmlComponent</title>
<polygon fill="#ffffb3" stroke="black" points="2304.11,-84.8 2165.89,-84.8 2165.89,-48.8 2304.11,-48.8 2304.11,-84.8"/>
<text text-anchor="middle" x="2235" y="-62.6" font-family="Times,serif" font-size="14.00">MiscHtmlComponent</text>
</g>
<!-- MiscHtmlComponent&#45;&gt;ThreejsSobaModule -->
<g id="edge12" class="edge">
<title>MiscHtmlComponent&#45;&gt;ThreejsSobaModule</title>
<path fill="none" stroke="black" d="M2235,-84.85C2235,-99.17 2235,-116.8 2235,-116.8 2235,-116.8 2146.89,-116.8 2146.89,-116.8"/>
<polygon fill="black" stroke="black" points="2146.89,-113.3 2136.89,-116.8 2146.89,-120.3 2146.89,-113.3"/>
</g>
<!-- PerfDetailedComponent -->
<g id="node13" class="node">
<title>PerfDetailedComponent</title>
<polygon fill="#ffffb3" stroke="black" points="2148.08,-84.8 1995.92,-84.8 1995.92,-48.8 2148.08,-48.8 2148.08,-84.8"/>
<text text-anchor="middle" x="2072" y="-62.6" font-family="Times,serif" font-size="14.00">PerfDetailedComponent</text>
</g>
<!-- PerfDetailedComponent&#45;&gt;ThreejsSobaModule -->
<g id="edge13" class="edge">
<title>PerfDetailedComponent&#45;&gt;ThreejsSobaModule</title>
<path fill="none" stroke="black" d="M2072,-84.91C2072,-84.91 2072,-103.79 2072,-103.79"/>
<polygon fill="black" stroke="black" points="2068.5,-103.79 2072,-113.79 2075.5,-103.79 2068.5,-103.79"/>
</g>
<!-- StageCenterComponent -->
<g id="node14" class="node">
<title>StageCenterComponent</title>
<polygon fill="#ffffb3" stroke="black" points="1977.75,-84.8 1828.25,-84.8 1828.25,-48.8 1977.75,-48.8 1977.75,-84.8"/>
<text text-anchor="middle" x="1903" y="-62.6" font-family="Times,serif" font-size="14.00">StageCenterComponent</text>
</g>
<!-- StageCenterComponent&#45;&gt;ThreejsSobaModule -->
<g id="edge14" class="edge">
<title>StageCenterComponent&#45;&gt;ThreejsSobaModule</title>
<path fill="none" stroke="black" d="M1903,-84.85C1903,-99.17 1903,-116.8 1903,-116.8 1903,-116.8 1997.14,-116.8 1997.14,-116.8"/>
<polygon fill="black" stroke="black" points="1997.14,-120.3 2007.14,-116.8 1997.14,-113.3 1997.14,-120.3"/>
</g>
<!-- StageEnvComponent -->
<g id="node15" class="node">
<title>StageEnvComponent</title>
<polygon fill="#ffffb3" stroke="black" points="1810.49,-84.8 1675.51,-84.8 1675.51,-48.8 1810.49,-48.8 1810.49,-84.8"/>
<text text-anchor="middle" x="1743" y="-62.6" font-family="Times,serif" font-size="14.00">StageEnvComponent</text>
</g>
<!-- StageEnvComponent&#45;&gt;ThreejsSobaModule -->
<g id="edge15" class="edge">
<title>StageEnvComponent&#45;&gt;ThreejsSobaModule</title>
<path fill="none" stroke="black" d="M1743,-85.04C1743,-100.37 1743,-119.8 1743,-119.8 1743,-119.8 1997.39,-119.8 1997.39,-119.8"/>
<polygon fill="black" stroke="black" points="1997.39,-123.3 2007.39,-119.8 1997.39,-116.3 1997.39,-123.3"/>
</g>
<!-- StageShadowComponent -->
<g id="node16" class="node">
<title>StageShadowComponent</title>
<polygon fill="#ffffb3" stroke="black" points="1657.55,-84.8 1500.45,-84.8 1500.45,-48.8 1657.55,-48.8 1657.55,-84.8"/>
<text text-anchor="middle" x="1579" y="-62.6" font-family="Times,serif" font-size="14.00">StageShadowComponent</text>
</g>
<!-- StageShadowComponent&#45;&gt;ThreejsSobaModule -->
<g id="edge16" class="edge">
<title>StageShadowComponent&#45;&gt;ThreejsSobaModule</title>
<path fill="none" stroke="black" d="M1579,-84.83C1579,-101.2 1579,-122.8 1579,-122.8 1579,-122.8 1997.3,-122.8 1997.3,-122.8"/>
<polygon fill="black" stroke="black" points="1997.3,-126.3 2007.3,-122.8 1997.3,-119.3 1997.3,-126.3"/>
</g>
<!-- StageShakeComponent -->
<g id="node17" class="node">
<title>StageShakeComponent</title>
<polygon fill="#ffffb3" stroke="black" points="1482.15,-84.8 1335.85,-84.8 1335.85,-48.8 1482.15,-48.8 1482.15,-84.8"/>
<text text-anchor="middle" x="1409" y="-62.6" font-family="Times,serif" font-size="14.00">StageShakeComponent</text>
</g>
<!-- StageShakeComponent&#45;&gt;ThreejsSobaModule -->
<g id="edge17" class="edge">
<title>StageShakeComponent&#45;&gt;ThreejsSobaModule</title>
<path fill="none" stroke="black" d="M1409,-84.82C1409,-102.17 1409,-125.8 1409,-125.8 1409,-125.8 1997.22,-125.8 1997.22,-125.8"/>
<polygon fill="black" stroke="black" points="1997.22,-129.3 2007.22,-125.8 1997.22,-122.3 1997.22,-129.3"/>
</g>
<!-- StageSkyComponent -->
<g id="node18" class="node">
<title>StageSkyComponent</title>
<polygon fill="#ffffb3" stroke="black" points="1318.22,-84.8 1183.78,-84.8 1183.78,-48.8 1318.22,-48.8 1318.22,-84.8"/>
<text text-anchor="middle" x="1251" y="-62.6" font-family="Times,serif" font-size="14.00">StageSkyComponent</text>
</g>
<!-- StageSkyComponent&#45;&gt;ThreejsSobaModule -->
<g id="edge18" class="edge">
<title>StageSkyComponent&#45;&gt;ThreejsSobaModule</title>
<path fill="none" stroke="black" d="M1251,-85.1C1251,-103.07 1251,-127.8 1251,-127.8 1251,-127.8 1997.23,-127.8 1997.23,-127.8"/>
<polygon fill="black" stroke="black" points="1997.23,-131.3 2007.23,-127.8 1997.23,-124.3 1997.23,-131.3"/>
</g>
<!-- StageSpotComponent -->
<g id="node19" class="node">
<title>StageSpotComponent</title>
<polygon fill="#ffffb3" stroke="black" points="1166.11,-84.8 1027.89,-84.8 1027.89,-48.8 1166.11,-48.8 1166.11,-84.8"/>
<text text-anchor="middle" x="1097" y="-62.6" font-family="Times,serif" font-size="14.00">StageSpotComponent</text>
</g>
<!-- StageSpotComponent&#45;&gt;ThreejsSobaModule -->
<g id="edge19" class="edge">
<title>StageSpotComponent&#45;&gt;ThreejsSobaModule</title>
<path fill="none" stroke="black" d="M1097,-84.97C1097,-103.89 1097,-130.8 1097,-130.8 1097,-130.8 1997.27,-130.8 1997.27,-130.8"/>
<polygon fill="black" stroke="black" points="1997.27,-134.3 2007.27,-130.8 1997.27,-127.3 1997.27,-134.3"/>
</g>
<!-- StageStageComponent -->
<g id="node20" class="node">
<title>StageStageComponent</title>
<polygon fill="#ffffb3" stroke="black" points="1009.54,-84.8 866.46,-84.8 866.46,-48.8 1009.54,-48.8 1009.54,-84.8"/>
<text text-anchor="middle" x="938" y="-62.6" font-family="Times,serif" font-size="14.00">StageStageComponent</text>
</g>
<!-- StageStageComponent&#45;&gt;ThreejsSobaModule -->
<g id="edge20" class="edge">
<title>StageStageComponent&#45;&gt;ThreejsSobaModule</title>
<path fill="none" stroke="black" d="M938,-85.11C938,-104.95 938,-133.8 938,-133.8 938,-133.8 1997.37,-133.8 1997.37,-133.8"/>
<polygon fill="black" stroke="black" points="1997.37,-137.3 2007.37,-133.8 1997.37,-130.3 1997.37,-137.3"/>
</g>
<!-- StageStarsComponent -->
<g id="node21" class="node">
<title>StageStarsComponent</title>
<polygon fill="#ffffb3" stroke="black" points="848.44,-84.8 707.56,-84.8 707.56,-48.8 848.44,-48.8 848.44,-84.8"/>
<text text-anchor="middle" x="778" y="-62.6" font-family="Times,serif" font-size="14.00">StageStarsComponent</text>
</g>
<!-- StageStarsComponent&#45;&gt;ThreejsSobaModule -->
<g id="edge21" class="edge">
<title>StageStarsComponent&#45;&gt;ThreejsSobaModule</title>
<path fill="none" stroke="black" d="M778,-84.83C778,-105.57 778,-136.8 778,-136.8 778,-136.8 1997.39,-136.8 1997.39,-136.8"/>
<polygon fill="black" stroke="black" points="1997.39,-140.3 2007.39,-136.8 1997.39,-133.3 1997.39,-140.3"/>
</g>
<!-- ThreejsSobaComponent -->
<g id="node22" class="node">
<title>ThreejsSobaComponent</title>
<polygon fill="#ffffb3" stroke="black" points="689.81,-84.8 538.19,-84.8 538.19,-48.8 689.81,-48.8 689.81,-84.8"/>
<text text-anchor="middle" x="614" y="-62.6" font-family="Times,serif" font-size="14.00">ThreejsSobaComponent</text>
</g>
<!-- ThreejsSobaComponent&#45;&gt;ThreejsSobaModule -->
<g id="edge22" class="edge">
<title>ThreejsSobaComponent&#45;&gt;ThreejsSobaModule</title>
<path fill="none" stroke="black" d="M614,-84.97C614,-106.3 614,-138.8 614,-138.8 614,-138.8 1997,-138.8 1997,-138.8"/>
<polygon fill="black" stroke="black" points="1997,-142.3 2007,-138.8 1997,-135.3 1997,-142.3"/>
</g>
<!-- AppSharedModule -->
<g id="node24" class="node">
<title>AppSharedModule</title>
<polygon fill="#8dd3c7" stroke="black" points="514.04,-84.8 511.04,-88.8 490.04,-88.8 487.04,-84.8 391.96,-84.8 391.96,-48.8 514.04,-48.8 514.04,-84.8"/>
<text text-anchor="middle" x="453" y="-62.6" font-family="Times,serif" font-size="14.00">AppSharedModule</text>
</g>
<!-- AppSharedModule&#45;&gt;ThreejsSobaModule -->
<g id="edge23" class="edge">
<title>AppSharedModule&#45;&gt;ThreejsSobaModule</title>
<path fill="none" stroke="black" d="M453,-84.96C453,-107.15 453,-141.8 453,-141.8 453,-141.8 1997.28,-141.8 1997.28,-141.8"/>
<polygon fill="black" stroke="black" points="1997.28,-145.3 2007.28,-141.8 1997.28,-138.3 1997.28,-145.3"/>
</g>
<!-- DefaultSpotLightModule -->
<g id="node25" class="node">
<title>DefaultSpotLightModule</title>
<polygon fill="#8dd3c7" stroke="black" points="373.54,-84.8 370.54,-88.8 349.54,-88.8 346.54,-84.8 216.46,-84.8 216.46,-48.8 373.54,-48.8 373.54,-84.8"/>
<text text-anchor="middle" x="295" y="-62.6" font-family="Times,serif" font-size="14.00">DefaultSpotLightModule</text>
</g>
<!-- DefaultSpotLightModule&#45;&gt;ThreejsSobaModule -->
<g id="edge24" class="edge">
<title>DefaultSpotLightModule&#45;&gt;ThreejsSobaModule</title>
<path fill="none" stroke="black" d="M295,-84.89C295,-107.93 295,-144.8 295,-144.8 295,-144.8 1997.44,-144.8 1997.44,-144.8"/>
<polygon fill="black" stroke="black" points="1997.44,-148.3 2007.44,-144.8 1997.44,-141.3 1997.44,-148.3"/>
</g>
<!-- ThreejsSobaRoutingModule -->
<g id="node26" class="node">
<title>ThreejsSobaRoutingModule</title>
<polygon fill="#8dd3c7" stroke="black" points="198.15,-84.8 195.15,-88.8 174.15,-88.8 171.15,-84.8 23.85,-84.8 23.85,-48.8 198.15,-48.8 198.15,-84.8"/>
<text text-anchor="middle" x="111" y="-62.6" font-family="Times,serif" font-size="14.00">ThreejsSobaRoutingModule</text>
</g>
<!-- ThreejsSobaRoutingModule&#45;&gt;ThreejsSobaModule -->
<g id="edge25" class="edge">
<title>ThreejsSobaRoutingModule&#45;&gt;ThreejsSobaModule</title>
<path fill="none" stroke="black" d="M111,-85.18C111,-109.08 111,-147.8 111,-147.8 111,-147.8 1997.31,-147.8 1997.31,-147.8"/>
<polygon fill="black" stroke="black" points="1997.31,-151.3 2007.31,-147.8 1997.31,-144.3 1997.31,-151.3"/>
</g>
</g>
</svg>
