<?xml version="1.0" encoding="UTF-8" standalone="no"?>
<!DOCTYPE svg PUBLIC "-//W3C//DTD SVG 1.1//EN"
 "http://www.w3.org/Graphics/SVG/1.1/DTD/svg11.dtd">
<!-- Generated by graphviz version 3.0.0 (20220226.1711)
 -->
<!-- Title: dependencies Pages: 1 -->
<svg width="440pt" height="312pt"
 viewBox="0.00 0.00 440.00 311.80" xmlns="http://www.w3.org/2000/svg" xmlns:xlink="http://www.w3.org/1999/xlink">
<g id="graph0" class="graph" transform="scale(1 1) rotate(0) translate(4 307.8)">
<title>dependencies</title>
<polygon fill="white" stroke="transparent" points="-4,4 -4,-307.8 436,-307.8 436,4 -4,4"/>
<text text-anchor="middle" x="216" y="-8.2" font-family="sans-serif" font-size="14.00">dependencies</text>
<g id="clust1" class="cluster">
<title>cluster_DefaultSpotLightModule</title>
<polygon fill="none" stroke="black" stroke-dasharray="1,5" points="8,-32.8 8,-295.8 424,-295.8 424,-32.8 8,-32.8"/>
</g>
<g id="clust2" class="cluster">
<title>cluster_DefaultSpotLightModule_declarations</title>
<polygon fill="none" stroke="black" points="151,-105.8 151,-157.8 281,-157.8 281,-105.8 151,-105.8"/>
</g>
<g id="clust3" class="cluster">
<title>cluster_DefaultSpotLightModule_DefaultSpotLight_providers</title>
<polygon fill="none" stroke="black" points="16,-40.8 16,-92.8 416,-92.8 416,-40.8 16,-40.8"/>
</g>
<g id="clust5" class="cluster">
<title>cluster_DefaultSpotLightModule_exports</title>
<polygon fill="none" stroke="black" points="149,-235.8 149,-287.8 283,-287.8 283,-235.8 149,-235.8"/>
</g>
<!-- DefaultSpotLight -->
<g id="node1" class="node">
<title>DefaultSpotLight</title>
<polygon fill="#ffffb3" stroke="black" points="272.99,-149.8 159.01,-149.8 159.01,-113.8 272.99,-113.8 272.99,-149.8"/>
<text text-anchor="middle" x="216" y="-127.6" font-family="Times,serif" font-size="14.00">DefaultSpotLight</text>
</g>
<!-- DefaultSpotLightModule -->
<g id="node2" class="node">
<title>DefaultSpotLightModule</title>
<polygon fill="#8dd3c7" stroke="black" points="294.54,-214.8 291.54,-218.8 270.54,-218.8 267.54,-214.8 137.46,-214.8 137.46,-178.8 294.54,-178.8 294.54,-214.8"/>
<text text-anchor="middle" x="216" y="-192.6" font-family="Times,serif" font-size="14.00">DefaultSpotLightModule</text>
</g>
<!-- DefaultSpotLight&#45;&gt;DefaultSpotLightModule -->
<g id="edge1" class="edge">
<title>DefaultSpotLight&#45;&gt;DefaultSpotLightModule</title>
<path fill="none" stroke="black" d="M216,-149.91C216,-149.91 216,-168.79 216,-168.79"/>
<polygon fill="black" stroke="black" points="212.5,-168.79 216,-178.79 219.5,-168.79 212.5,-168.79"/>
</g>
<!-- DefaultSpotLight  -->
<g id="node4" class="node">
<title>DefaultSpotLight </title>
<polygon fill="#fb8072" stroke="black" points="274.99,-279.8 157.01,-279.8 157.01,-243.8 274.99,-243.8 274.99,-279.8"/>
<text text-anchor="middle" x="216" y="-257.6" font-family="Times,serif" font-size="14.00">DefaultSpotLight </text>
</g>
<!-- DefaultSpotLightModule&#45;&gt;DefaultSpotLight  -->
<g id="edge3" class="edge">
<title>DefaultSpotLightModule&#45;&gt;DefaultSpotLight </title>
<path fill="none" stroke="black" stroke-dasharray="5,2" d="M216,-214.91C216,-214.91 216,-233.79 216,-233.79"/>
<polygon fill="black" stroke="black" points="212.5,-233.79 216,-243.79 219.5,-233.79 212.5,-233.79"/>
</g>
<!-- NGT_SOBA_DEPTH_BUFFER_PROVIDER -->
<g id="node3" class="node">
<title>NGT_SOBA_DEPTH_BUFFER_PROVIDER</title>
<ellipse fill="#fdb462" stroke="black" cx="216" cy="-66.8" rx="191.72" ry="18"/>
<text text-anchor="middle" x="216" y="-62.6" font-family="Times,serif" font-size="14.00">NGT_SOBA_DEPTH_BUFFER_PROVIDER</text>
</g>
<!-- NGT_SOBA_DEPTH_BUFFER_PROVIDER&#45;&gt;DefaultSpotLight -->
<g id="edge2" class="edge">
<title>NGT_SOBA_DEPTH_BUFFER_PROVIDER&#45;&gt;DefaultSpotLight</title>
<path fill="none" stroke="black" d="M216,-84.91C216,-84.91 216,-103.79 216,-103.79"/>
<polygon fill="black" stroke="black" points="212.5,-103.79 216,-113.79 219.5,-103.79 212.5,-103.79"/>
</g>
</g>
</svg>
