<?xml version="1.0" encoding="UTF-8" standalone="no"?>
<!DOCTYPE svg PUBLIC "-//W3C//DTD SVG 1.1//EN"
 "http://www.w3.org/Graphics/SVG/1.1/DTD/svg11.dtd">
<!-- Generated by graphviz version 3.0.0 (20220226.1711)
 -->
<!-- Title: dependencies Pages: 1 -->
<svg width="335pt" height="247pt"
 viewBox="0.00 0.00 335.00 246.80" xmlns="http://www.w3.org/2000/svg" xmlns:xlink="http://www.w3.org/1999/xlink">
<g id="graph0" class="graph" transform="scale(1 1) rotate(0) translate(4 242.8)">
<title>dependencies</title>
<polygon fill="white" stroke="transparent" points="-4,4 -4,-242.8 331,-242.8 331,4 -4,4"/>
<text text-anchor="middle" x="163.5" y="-8.2" font-family="sans-serif" font-size="14.00">dependencies</text>
<g id="clust1" class="cluster">
<title>cluster_SimpleCubeComponentModule</title>
<polygon fill="none" stroke="black" stroke-dasharray="1,5" points="8,-32.8 8,-230.8 319,-230.8 319,-32.8 8,-32.8"/>
</g>
<g id="clust2" class="cluster">
<title>cluster_SimpleCubeComponentModule_declarations</title>
<polygon fill="none" stroke="black" points="16,-40.8 16,-92.8 311,-92.8 311,-40.8 16,-40.8"/>
</g>
<g id="clust6" class="cluster">
<title>cluster_SimpleCubeComponentModule_exports</title>
<polygon fill="none" stroke="black" points="78,-170.8 78,-222.8 248,-222.8 248,-170.8 78,-170.8"/>
</g>
<!-- CubeComponent -->
<g id="node1" class="node">
<title>CubeComponent</title>
<polygon fill="#ffffb3" stroke="black" points="303.38,-84.8 192.62,-84.8 192.62,-48.8 303.38,-48.8 303.38,-84.8"/>
<text text-anchor="middle" x="248" y="-62.6" font-family="Times,serif" font-size="14.00">CubeComponent</text>
</g>
<!-- SimpleCubeComponentModule -->
<g id="node3" class="node">
<title>SimpleCubeComponentModule</title>
<polygon fill="#8dd3c7" stroke="black" points="260.1,-149.8 257.1,-153.8 236.1,-153.8 233.1,-149.8 65.9,-149.8 65.9,-113.8 260.1,-113.8 260.1,-149.8"/>
<text text-anchor="middle" x="163" y="-127.6" font-family="Times,serif" font-size="14.00">SimpleCubeComponentModule</text>
</g>
<!-- CubeComponent&#45;&gt;SimpleCubeComponentModule -->
<g id="edge1" class="edge">
<title>CubeComponent&#45;&gt;SimpleCubeComponentModule</title>
<path fill="none" stroke="black" d="M226.31,-84.91C226.31,-84.91 226.31,-103.79 226.31,-103.79"/>
<polygon fill="black" stroke="black" points="222.81,-103.79 226.31,-113.79 229.81,-103.79 222.81,-103.79"/>
</g>
<!-- SimpleCubeComponent -->
<g id="node2" class="node">
<title>SimpleCubeComponent</title>
<polygon fill="#ffffb3" stroke="black" points="174.05,-84.8 23.95,-84.8 23.95,-48.8 174.05,-48.8 174.05,-84.8"/>
<text text-anchor="middle" x="99" y="-62.6" font-family="Times,serif" font-size="14.00">SimpleCubeComponent</text>
</g>
<!-- SimpleCubeComponent&#45;&gt;SimpleCubeComponentModule -->
<g id="edge2" class="edge">
<title>SimpleCubeComponent&#45;&gt;SimpleCubeComponentModule</title>
<path fill="none" stroke="black" d="M120.11,-84.91C120.11,-84.91 120.11,-103.79 120.11,-103.79"/>
<polygon fill="black" stroke="black" points="116.61,-103.79 120.11,-113.79 123.61,-103.79 116.61,-103.79"/>
</g>
<!-- SimpleCubeComponent  -->
<g id="node4" class="node">
<title>SimpleCubeComponent </title>
<polygon fill="#fb8072" stroke="black" points="240.05,-214.8 85.95,-214.8 85.95,-178.8 240.05,-178.8 240.05,-214.8"/>
<text text-anchor="middle" x="163" y="-192.6" font-family="Times,serif" font-size="14.00">SimpleCubeComponent </text>
</g>
<!-- SimpleCubeComponentModule&#45;&gt;SimpleCubeComponent  -->
<g id="edge3" class="edge">
<title>SimpleCubeComponentModule&#45;&gt;SimpleCubeComponent </title>
<path fill="none" stroke="black" stroke-dasharray="5,2" d="M163,-149.91C163,-149.91 163,-168.79 163,-168.79"/>
<polygon fill="black" stroke="black" points="159.5,-168.79 163,-178.79 166.5,-168.79 159.5,-168.79"/>
</g>
</g>
</svg>
